<svg xmlns="http://www.w3.org/2000/svg" width="202.819" height="63.744"><defs><style>.a{fill:#231815}</style></defs><path class="a" d="M112.476 27.252h-4.985v-9.631h4.457v-3.056h-4.457v-4.311h-3.714v4.311h-9.236v-4.247h-3.382v4.247h-5.378v3.056h5.378V23.8a15.083 15.083 0 01-.4 3.452h-5.315v3.122h4.386a16.817 16.817 0 01-4.582 5.906l2.523 2.465a20.6 20.6 0 005.782-8.371h10.224v8.032h3.714v-8.032h4.985zm-18.161 0a20.067 20.067 0 00.226-4.184v-5.447h9.236v9.631zM57.409 11.514h23.583v3.43H57.409zm1.103 10.86h21.571v3.432H58.512zm-2.04 11.604h25.786v3.487H56.472zm77.694-14.456l-2.462 2.1s3.947 6.144 8.744 9.59l2.081-3.181a60.835 60.835 0 01-8.363-8.509z"/><path class="a" d="M141.274 14.175v-3.189h-26.236v3.189h12.613c-.763 1.849-4.137 8.763-13.553 13.677l2.181 3.125a44.649 44.649 0 0010.2-8.586v16.294h3.7V17.318a28.946 28.946 0 001.617-3.143zm27.693 3.8h-2.548c-.26 16.4-3.562 20.762-3.562 20.762l-2.836-2.076s3.156-5.33 3.148-18.686H160.7v-2.769h2.457v-4.913l3.258-.006v4.919h5.739V35.44a2.949 2.949 0 01-3.211 3.046h-3.512v-3.079h2.692c.469 0 .837-.254.837-.923zm-8.929-5.113l-1.069-2.6c-3.419.89-13.464.793-13.464.793v2.4s2.662.031 5.643-.024v1.768h-5.643v2.355h5.643v1.928h-5.085v10.5h5.085v1.857h-5.085v2.36h5.085v1.923h-5.643v2.355h13.942v-2.346h-5.328v-1.923h5.328v-2.36h-5.328v-1.857h5.328v-10.5h-5.328v-1.93h5.61v-2.355h-5.61v-1.841s5.035-.232 5.919-.503zm-8.89 8.708v2.2h-2.219v-2.2zm-2.219 6.342v-2.064h2.219v2.064zm7.638 0h-2.448v-2.064h2.448zm0-6.342v2.2h-2.448v-2.2zm24.142-.417h21.7v-2.91h-5.944v-2.755h6.358v-2.907h-11.478V9.806h-3.526v2.775h-11.095v2.907h6.057v2.755h-5.3c.677 13.834-2.2 18.457-2.2 18.457l2.8 1.968s3.366-5.693 2.628-17.515zm12.775-2.91h-7.732v-2.755h7.732z"/><path class="a" d="M185.351 27.506h5.5v2.335h-5.568v2.916h5.568v2.755h-9.782v2.9h21.745v-2.9h-8.984v-2.755h7.533v-2.916h-7.533v-2.335h7.881V24.6h-7.881v-2.848h-2.979V24.6h-5.1v-2.436l-2.971.006c.332 5.709-1.694 8.8-1.694 8.8l2.659 1.1a17.4 17.4 0 001.606-4.564zm-54.416 20.328v2.1h-4.124v2.541h4.124v1.952h-4.124v4.413h-2.474V47.834zm20.606 0a3.683 3.683 0 014.022 3.938v3.1a3.7 3.7 0 01-4.022 3.972h-3.989v-11.01zm0 2.07h-1.515v6.933h1.515c1.06 0 1.532-.521 1.532-2.036v-2.894c0-1.481-.473-2.007-1.532-2.007zm15.916 1.576v3.7a4.006 4.006 0 01-8.011.017V51.48a4.006 4.006 0 018.011 0zm-2.491 0c0-1.347-.454-1.9-1.515-1.9s-1.531.539-1.531 1.9v3.714c0 1.4.454 1.952 1.531 1.952 1.044 0 1.515-.555 1.515-1.969zm30.842-3.646l3.686 6.059h.034v-6.059h2.188V58.84H200l-3.8-6.311h-.034v6.311h-2.188V47.834zm-8.233 0h-3.239l-3.051 11.006h2.491l.548-2.238h3.213l.548 2.238h2.541zm-2.807 6.951l1.145-4.679h.034l1.145 4.679zm-6.55-4.818a3.68 3.68 0 00-3.662-2.409 3.127 3.127 0 00-3.331 2.877c0 1.5.678 2.311 2.135 3.209.311.192 1.34.884 1.614 1.05.691.42.943.684.943 1.186a1.244 1.244 0 01-1.344 1.1c-.783 0-1.374-.482-1.767-1.509l-1.881.965a3.583 3.583 0 003.721 2.681 3.415 3.415 0 003.624-3.293 3.114 3.114 0 00-1.562-2.673c-.42-.262-.9-.544-1.447-.89-1.281-.818-1.723-1.1-1.723-1.749s.5-1.016 1.336-.975a2.149 2.149 0 011.61 1.3zm-35.057-2.132v7.393a3.62 3.62 0 01-3.989 3.887c-2.558 0-4.022-1.43-4.022-3.769v-7.511h2.491v7.511a1.4 1.4 0 001.531 1.6c.976 0 1.514-.489 1.514-1.6v-7.511zm-75.384-.001V58.84h-2.256v-6.311h-.034l-2.356 4.662h-1.093L59.7 52.529h-.034v6.311h-2.257V47.834h2.34l2.827 5.883h.034l2.827-5.883zm17.758 0v2.121h-2.457v8.885h-2.491v-8.885H78.13v-2.121zm28.435 0V58.84h-2.491V47.834zm-18.599 2.133a3.681 3.681 0 00-3.663-2.409 3.127 3.127 0 00-3.331 2.877c0 1.5.679 2.311 2.136 3.209.31.192 1.34.884 1.613 1.05.691.42.943.684.943 1.186a1.243 1.243 0 01-1.343 1.1c-.783 0-1.375-.482-1.768-1.509l-1.881.965a3.584 3.584 0 003.723 2.679 3.415 3.415 0 003.625-3.293 3.114 3.114 0 00-1.562-2.673c-.421-.262-.905-.544-1.447-.89-1.281-.818-1.724-1.1-1.724-1.749s.5-1.016 1.336-.975a2.147 2.147 0 011.61 1.3zm11.7-2.132v7.393a3.619 3.619 0 01-3.989 3.887c-2.558 0-4.022-1.43-4.022-3.769v-7.511h2.491v7.511a1.4 1.4 0 001.531 1.6c.976 0 1.515-.489 1.515-1.6v-7.511zm-32.307-.001V58.84h-2.49V47.834z"/><path d="M10.2 25.608a7.628 7.628 0 00-2.066 1.5 17 17 0 00-1.483 1.419 29.5 29.5 0 00-3.8 5.891 29.215 29.215 0 00-1.512 3.212 14.025 14.025 0 00-.925 3.023 27.177 27.177 0 00-.4 2.9 23.229 23.229 0 00.144 3.176 21.932 21.932 0 001.67 5.722c.181.466.334.917.554 1.356a9.589 9.589 0 00.588.954c.316.474.631.963.992 1.407a2.4 2.4 0 00.935.8c.708.244 1.432.433 2.16.63a33.088 33.088 0 006.6 1.107 36.871 36.871 0 004.111-.023 41.895 41.895 0 003.411-.29 21.233 21.233 0 006.668-2.046 19.8 19.8 0 003.232-1.963 12.439 12.439 0 002.438-2.565 21.916 21.916 0 002.66-4.754c.23-.558.468-1.1.647-1.679a2.015 2.015 0 00.053-1.291 10.418 10.418 0 00-1.293-1.931c-1.1-1.441-2.276-2.809-3.4-4.227a22.974 22.974 0 00-3.2-3.522 23.457 23.457 0 01-2.278-2.1c-.7-.748-1.278-1.612-1.928-2.4a12.2 12.2 0 00-6.447-4.471 14.459 14.459 0 00-4.178-.485c-.666.042-1.382.113-2.081.215a8.272 8.272 0 00-1.869.439" fill="#004098"/><path d="M22.414 0a5 5 0 00-2.964 1.39 17.975 17.975 0 00-1.734 1.71 26.772 26.772 0 00-2 2.346 16.31 16.31 0 00-1.589 2.84 16.931 16.931 0 00-1.1 2.681 10.194 10.194 0 00-.363 2.9 17.15 17.15 0 00.4 3.086 2.213 2.213 0 001.824 2 6.134 6.134 0 003.357-.492 15.565 15.565 0 011.708-.479c.411-.081.813-.093 1.247-.15a11.481 11.481 0 003.6-1.129 7.706 7.706 0 002.777-1.966 6.354 6.354 0 001.051-1.957 7.218 7.218 0 00.254-2.665 11.045 11.045 0 00-.667-3.15 17.385 17.385 0 00-2.158-3.937A12.815 12.815 0 0024.491 1.3C23.927.763 23.085 0 22.414 0" fill="#e60012"/><path class="a" d="M47.358 57.109c-.349-.429-.737-.85-1.1-1.3-.329-.4-.694-.782-1.051-1.172a4.148 4.148 0 01-.62-.7 3.436 3.436 0 00-.74-.778c-.288-.266-.254-.512-.7-1.014-.354-.4-.693-.835-1.038-1.251-.117-.136-.232-.338-.038-.474.332-.359.681-.733.992-1.112.339-.415.627-.863.974-1.273.309-.358.646-.7.948-1.064s.515-.768.8-1.13c.191-.237.39-.447.581-.69.127-.164.25-.358.373-.522.3-.416 1.005-1.24.836-1.708a1.821 1.821 0 00-.275-.321c-.042-.035-.094-.161-.168-.165s-.243.079-.317.077c-.26-.017-.892 1-1.236 1.271-.266.409-.575.725-.842 1.108-.2.288-.372.6-.564.887a14.789 14.789 0 01-1.507 1.736c-.378.418-.728.928-1.084 1.369-.327.405-.485.463-.745.056a24.9 24.9 0 01-2.062-3.02 43.654 43.654 0 00-2.268-3.742c-.468-.59-.96-1.2-1.439-1.78-.35-.411-.685-.838-1.023-1.244a6.246 6.246 0 01-.618-.7c-.121-.2-.285-.385-.408-.582-1.031-1.679-1.135-1.678-1.7-2.518-.243-.361-.439-.751-.714-1.09-.3-.411-.623-.81-.924-1.227-.395-.553-.716-1.1-1.094-1.663-.531-.8-1.107-1.639-1.6-2.472-.111-.186-.2-.339-.3-.525a37.24 37.24 0 00-.8-1.376c-.255-.4-.536-.8-.785-1.212-.146-.246-.267-.492-.4-.743a8.3 8.3 0 00-.842-1.2c-.239-.326-.462-.712-.671-1.057a46.846 46.846 0 00-.987-1.335c-.2-.256-.436-.471-.633-.715s-.372-.5-.562-.73c-.307-.375-.618-.76-.934-1.126a.368.368 0 01-.13-.328c.063-.231.486-.477.667-.665.49-.525.964-1.119 1.421-1.674a36.137 36.137 0 001.712-2.256 11.1 11.1 0 001.408-2.542 6.72 6.72 0 00.649-2.439 4.2 4.2 0 00-.092-1.3 3.978 3.978 0 00-3.81-2.8 7.245 7.245 0 00-2.486.515 9.3 9.3 0 00-1.6 1.182c.016-.009-.854.694-.842.685a3.458 3.458 0 00-.367.357 3.547 3.547 0 00-.35.414 5.144 5.144 0 00-.664 1.388 7.651 7.651 0 00-.494 1.892 8.593 8.593 0 001.22 4.1c.385.548.773 1.138 1.117 1.714.266.438.475.835.712 1.286.086.162-.062.348-.214.53-.21.25-.48.492-.63.656-.465.515-.94 1.07-1.424 1.564-.34.344-.715.665-1.063 1-.434.419-.847.857-1.263 1.3-1.931 1.825-3.517 3.974-5.267 5.964-.475.6-.938 1.263-1.379 1.9-.473.678-.947 1.361-1.383 2.052s-.861 1.384-1.265 2.1c-.53 1.2-1.145 2.335-1.755 3.489-.163.522-.377 1.037-.564 1.559a23.053 23.053 0 00-1.213 3.914 7.886 7.886 0 00-.2 1.755 8.553 8.553 0 01-.067.935c-.04.219-.1.224-.113.442a5.637 5.637 0 00.034.694 9.592 9.592 0 00-.056 1.544c-.012.248-.079.413-.086.647a8.263 8.263 0 00.079.843c.045.246.063.461.125.7a6.154 6.154 0 01.07.959c.026.22.111.091.19.692a6.19 6.19 0 00.265 1.063 15.345 15.345 0 00.887 2.121 9.206 9.206 0 00.738 1.275 12.638 12.638 0 003.157 3.027 15.476 15.476 0 002.27 1.128c.625.292 1.3.445 1.924.747.52.114 1.039.21 1.549.312l1.026.211a7.552 7.552 0 001.131.1c.313.025.624.07.935.09a24.806 24.806 0 004.476-.313c.322-.051.684-.156 1-.212.58-.1 1.02-.1 1.685-.266.949-.232 1.917-.456 2.869-.7.418-.107.834-.26 1.242-.385.339-.1.671-.168 1-.287a15.248 15.248 0 002.669-1.225 8.816 8.816 0 001.361-.8c.627-.433 1.323-.747 1.94-1.192 1.164-.837 2.238-1.767 3.316-2.714 1.536-1.352 3.183-2.535 4.668-3.954.125-.266.3.016.39.144.225.321.457.685.7.992.214.271.752.89.966 1.153a1.8 1.8 0 00.514.479c.119.122.214.288.349.36a1.039 1.039 0 01.345.334c.265.367.622.765.948 1.16.13.158.257.337.372.506.158.241.322.313.441.477.181.252.09.338.4.774.158.228.383.2.734.065.118-.046.214-.027.3-.065a.768.768 0 00.091-.946zM18.134 15.814l-.813-1.225c-.311-.7-.559-1.428-.8-2.157a5.227 5.227 0 01-.113-1.417 5.3 5.3 0 01.341-1.3c.088-.232.127-.483.218-.692a2.509 2.509 0 01.355-.519c.269-.263.469-.565.762-.8a9.5 9.5 0 012.044-1.446 5.038 5.038 0 01.841-.231A3.6 3.6 0 0121.6 5.9a3.409 3.409 0 01.863.1 2.164 2.164 0 011.281.8 3.374 3.374 0 01.548 3.727 12.785 12.785 0 01-2.3 3.912c-.605.758-1.181 1.381-1.831 2.092-.071.08-.271.275-.383.412-.176.218-.339.474-.513.525-.137.041-.241-.051-.339-.267zM40.021 50.5a44.391 44.391 0 01-3.76 3.271c-.9.7-1.806 1.395-2.665 2.147-.452.4-.931.843-1.407 1.216-.208.163-.417.276-.619.441a11.463 11.463 0 01-1.846 1.145c-.464.255-.938.527-1.4.75-.559.266-1.118.549-1.683.754-.626.228-1.264.4-1.914.6-.954.214-1.89.479-2.839.713a15.837 15.837 0 01-1.874.371c-.768.084-1.53.191-2.293.3a15.968 15.968 0 01-2.512.242 9.519 9.519 0 01-2.3-.183c-.406-.068-.8-.2-1.2-.3-.48-.114-.974-.174-1.452-.308a11.508 11.508 0 01-2.229-1.038 8.812 8.812 0 01-1.671-1.022 10.091 10.091 0 01-1.445-1.081 11.375 11.375 0 01-.791-.959 5.908 5.908 0 01-.7-.924c-.2-.373-.384-.84-.571-1.235-.124-.255-.261-.473-.361-.725a6.031 6.031 0 01-.215-.659c-.043-.169-.038-.265-.079-.434a2.515 2.515 0 00-.173-.41.908.908 0 01-.037-.434 16.129 16.129 0 01-.264-4.441c.037-.992.074-2 .165-2.986a6.288 6.288 0 01.243-1.4c.191-.583.4-1.164.609-1.74.242-.675.457-1.378.7-2.04a11.142 11.142 0 01.52-1.152c.463-.921.977-1.819 1.411-2.75A20.642 20.642 0 016.6 33.926c.576-.908 1.191-1.8 1.834-2.667.581-.779 1.084-1.321 1.405-1.721.515-.638 1.028-1.29 1.564-1.914a16.693 16.693 0 001.345-1.524 13.082 13.082 0 011.1-1.158c.309-.308.638-.661.942-.982.739-.773 1.463-1.56 2.236-2.3a16.94 16.94 0 001.7-1.764c.192-.306.395-.265.585.02a79.623 79.623 0 013.062 4c.548.764 1.112 1.541 1.609 2.333.294.494.6.989.884 1.488s.561 1.016.854 1.525c.53.914 1.107 1.82 1.706 2.7.362.532.722 1.075 1.055 1.625.217.353.429.722.672 1.059.65.891 1.349 1.741 1.985 2.644a10.543 10.543 0 001.2 1.781c.426.541.864 1.086 1.284 1.606.586.722 1.219 1.4 1.762 2.154.433.6.787 1.253 1.214 1.862.433.81.88 1.613 1.36 2.4.236.395.479.8.744 1.18.159.217.322.415.492.62a6.2 6.2 0 01.848 1.2.264.264 0 01-.018.411"/></svg>