<svg xmlns="http://www.w3.org/2000/svg" width="292.234" height="70.569"><defs><style>.a{fill:#595757}.b{fill:#0068b7}</style></defs><path class="a" d="M74.352 12.3v1.317H60.091V12.3zm-.738-10.914v1.308H60.828V1.386zm-.78 5.214v1.287H61.619V6.6zM79.71.352h1.274v2.986h4.66V.352H86.9v2.986h3.23v1.22H86.9v4.051h3.485v1.21H86.9v4.764h-1.256V9.819h-5.021c-.327 1.347-.981 2.986-3.7 4.764l-.855-1.035c2.343-1.5 2.968-2.811 3.237-3.729h-3.187v-1.21h3.46a9.923 9.923 0 00.132-1.621v-2.43h-3.328v-1.22h3.328zm1.274 6.6c0 .352-.053 1.074-.122 1.66h4.782V4.558h-4.66zm16.316.817a18.229 18.229 0 00-4.362-1.815l.619-1.229a17.972 17.972 0 014.393 1.756zm-3.567 4.373c6.369-.439 8.971-3.143 10.732-8.609l1.318.586c-1.938 5.427-4.344 8.726-11.718 9.5zm4.847-7.925a19.815 19.815 0 00-4.48-1.825l.635-1.182a18.128 18.128 0 014.475 1.719zm20.729.183v9.05h-8.569v-1.229h7.242V9.37h-6.95V8.16h6.95V5.622h-7.067V4.4zm8.062 4.385a13.312 13.312 0 00-1.234-3.69l1.22-.331a15.69 15.69 0 011.327 3.718zm.005 4.255c4.935-1.054 6.853-3.123 7.75-8.628l1.352.254c-.883 4.411-2.2 8.062-8.56 9.516zm3.324-4.88a15.274 15.274 0 00-1.015-3.65l1.229-.293a16.257 16.257 0 011.075 3.631zm12.557-6.833V6.3c5.309-1.415 6.978-2.372 7.955-2.939l.917 1.211c-1.884.986-3.514 1.679-8.872 3.094v3.455c0 .84 0 1.143 1.254 1.143h5.9a19.072 19.072 0 002.577-.215l.088 1.425a23.467 23.467 0 01-2.64.195h-5.8c-1.449 0-2.82-.254-2.82-2.265V1.327zm11.132.449a1.6 1.6 0 01-1.586 1.6 1.612 1.612 0 01-1.6-1.6A1.585 1.585 0 01152.8.185a1.566 1.566 0 011.589 1.591zm-2.406 0a.818.818 0 10.82-.819.825.825 0 00-.82.819zm9.751 3.494a17.544 17.544 0 00-4.729-2.264l.693-1.23a20.407 20.407 0 014.895 2.148zm-4.646 6.892c4.344-.3 9.135-1.62 11.537-9.36l1.39.614c-1.234 3.543-3.24 9.3-12.39 10.268zm15.68-5.515a10.933 10.933 0 004.866-5.993l1.528.246a14.578 14.578 0 01-.982 2.049h6.794c-1.571 9.41-8.257 10.669-10.786 11.148l-.614-1.28c3.47-.516 7.857-1.864 9.668-8.579h-5.9a11.105 11.105 0 01-3.685 3.475zm10.474-4.109a12.655 12.655 0 00-.83-2.167l1.025-.254a15.9 15.9 0 01.883 2.148zm2.108-.117a12.423 12.423 0 00-.884-2.148L185.5 0a16.834 16.834 0 01.937 2.108zm2.615 10.443c2.441-2.615 3.256-6.734 3.47-11.244l1.46.156c-.449 6.872-1.85 9.761-3.777 12.065zm10.191-11.3c.478 6.726 2.533 9.654 3.938 11.323l-1.224.986c-1.416-1.708-3.588-5.027-4.11-12.143zm4.212.274a1.6 1.6 0 11-1.6-1.62 1.595 1.595 0 011.6 1.617zm-2.4 0a.8.8 0 00.8.8.83.83 0 00.829-.8.838.838 0 00-.829-.84.814.814 0 00-.802.837zm17.978 4.809V8.14h-13.66V6.647zM233.26 2.87c-1.132 6.393-4.412 10.15-10.9 11.264l-.581-1.289c6.2-1.035 8.5-4.1 9.677-8.687h-5.886a15.754 15.754 0 01-3.764 3.642l-.884-1.044a12.384 12.384 0 005.032-6.13l1.528.274a9.849 9.849 0 01-1 1.972z"/><path class="b" d="M90.955 36.456a8.526 8.526 0 108.506 8.521 8.514 8.514 0 00-8.506-8.521"/><path d="M34.874 44.977a8.521 8.521 0 108.526 8.531 8.529 8.529 0 00-8.522-8.531m28.166-17.042a5.679 5.679 0 00-5.681 5.681v31.253a5.688 5.688 0 1011.376 0V33.616a5.683 5.683 0 00-5.7-5.681" fill="#0093da"/><path class="b" d="M7.105 13.714A7.107 7.107 0 000 20.829v42.635a7.106 7.106 0 0014.212 0V20.829a7.109 7.109 0 00-7.107-7.115"/><path class="a" d="M129.49 50.648h8.829v6.423h-16.164V27.935h7.335v22.713zm17.281-3.465a4.4 4.4 0 108.79 0 4.4 4.4 0 10-8.79 0m15.392 9.888h-6.837v-2.2h-.073a6.715 6.715 0 01-5.812 2.87c-5.7 0-9.707-4.919-9.707-10.6s3.933-10.561 9.628-10.561a7.785 7.785 0 015.964 2.586v-1.9h6.837zm11.81-6.423h8.81v6.423h-16.164V27.935h7.354v22.713zm17.287-3.465a4.388 4.388 0 108.775 0 4.389 4.389 0 10-8.775 0m15.373 9.888H199.8v-2.2h-.063a6.718 6.718 0 01-5.818 2.87c-5.7 0-9.711-4.919-9.711-10.6s3.943-10.561 9.638-10.561a7.764 7.764 0 015.954 2.586v-1.9h6.833zm11.078-9.888a4.383 4.383 0 108.766 0 4.384 4.384 0 10-8.766 0m.225-7.7H218a6.784 6.784 0 015.808-2.9c5.739 0 9.716 4.958 9.716 10.629 0 5.71-3.923 10.532-9.619 10.532a7.726 7.726 0 01-5.973-2.577v10.015H211.1V37.266h6.833zm25.324 7.7a4.388 4.388 0 108.775 0 4.389 4.389 0 10-8.775 0m15.983 0c0 6.716-5.4 10.561-11.6 10.561-6.139 0-11.571-3.806-11.571-10.561 0-6.774 5.388-10.6 11.571-10.6s11.6 3.826 11.6 10.6m10.073-6.696h.068a6.66 6.66 0 016.243-3.514h1.3v6.765a5.444 5.444 0 00-2.889-.655c-3.783 0-4.724 2.6-4.724 5.984v8h-6.833v-19.8h6.833zm19.053 16.584h-6.818V43.044h-2.216v-5.778h2.216v-5.973h6.818v5.973h3.865v5.778h-3.865v14.027z"/></svg>